<?xml version="1.0" encoding="iso-8859-1"?>
<?xml-stylesheet type="text/css" href="../../singolo3.css"?>
<svg xmlns="http://www.w3.org/2000/svg" viewBox="0 0 180 177" width="15" height="15">
	<defs>
		<clipPath clipPathUnits="userSpaceOnUse" id="cp1">
			<path d="M0 0L180 0L180 177L0 177Z" />
		</clipPath>
	</defs>
	<style>
		tspan { white-space:pre }
		.shp0 { fill: #656d89 }
	</style>
	<g id="Page 1" clip-path="url(#cp1)">
		<path id="Path 1" class="shp0" d="M1.01 53.2L39.5 53.2L39.5 177L1.01 177L1.01 53.2ZM40.76 18.77C40.76 29.4 32.91 38.01 20 38.01C7.85 38.01 0 29.4 0 18.77C0 7.88 8.1 -0.48 20.5 -0.48C32.91 -0.48 40.51 7.88 40.76 18.77ZM62.52 92.69C62.52 77.25 62.02 64.34 61.52 53.2L94.93 53.2L96.71 70.41L97.47 70.41C102.53 62.31 114.93 50.41 135.7 50.41C161.01 50.41 180 67.38 180 103.83L180 177L141.52 177L141.52 108.39C141.52 92.44 135.95 81.56 122.02 81.56C111.39 81.56 105.06 88.9 102.28 95.98C101.26 98.51 101.01 102.06 101.01 105.61L101.01 177L62.52 177L62.52 92.69Z" />
	</g>
</svg>
